<svg xmlns="http://www.w3.org/2000/svg" xmlns:xlink="http://www.w3.org/1999/xlink" width="577.587" height="62.317" viewBox="0 0 577.587 62.317">
  <defs>
    <linearGradient id="linear-gradient" x1="0.709" y1="0.5" x2="0.268" y2="0.5" gradientUnits="objectBoundingBox">
      <stop offset="0" stop-color="#fa3c0d"/>
      <stop offset="0.383" stop-color="#d2781f"/>
      <stop offset="1" stop-color="#1c54f3"/>
    </linearGradient>
  </defs>
  <g id="Group_1" data-name="Group 1" transform="translate(-648.129 -443.16)">
    <path id="Path_1" data-name="Path 1" d="M2.129,0V-1a13.667,13.667,0,0,0,4.063-.717,7.379,7.379,0,0,0,2.716-1.8,7.029,7.029,0,0,0,1.869-3.52,33,33,0,0,0,.478-6.605V-45.673a33,33,0,0,0-.478-6.605A7.029,7.029,0,0,0,8.909-55.8a6.9,6.9,0,0,0-2.738-1.825,14.351,14.351,0,0,0-4.042-.7v-1H30.681q4.346,0,5.693.087a18.678,18.678,0,0,1,8.213,2.347,12.1,12.1,0,0,1,4.367,4.563A13.017,13.017,0,0,1,50.5-45.978a12.906,12.906,0,0,1-3.52,9.343A11.608,11.608,0,0,1,44.109-34.4a32.9,32.9,0,0,1-4.65,1.977A39.261,39.261,0,0,1,45.934-30.9a14.641,14.641,0,0,1,4.172,2.3,15.4,15.4,0,0,1,4.324,5.628,17.268,17.268,0,0,1,1.543,7.279,16.4,16.4,0,0,1-1.586,7.236,13.572,13.572,0,0,1-4.411,5.28A15.945,15.945,0,0,1,43.87-.7,54.857,54.857,0,0,1,33.9,0ZM20.772-57.972v25.813h3.52a39.443,39.443,0,0,0,5.128-.348,22.364,22.364,0,0,0,3.716-.826,10.081,10.081,0,0,0,2.586-1.3,10.882,10.882,0,0,0,3.411-4.237,13.457,13.457,0,0,0,1.2-5.715,16.184,16.184,0,0,0-1.239-6.28,11.459,11.459,0,0,0-3.281-4.628,9.915,9.915,0,0,0-4.063-1.956,33.751,33.751,0,0,0-6.931-.521Zm0,27.161v17.9a24.461,24.461,0,0,0,.456,5.258,8.858,8.858,0,0,0,1.5,3.39q2.216,2.912,7.6,2.912,7,0,11.06-3.824T45.456-15.6a19.181,19.181,0,0,0-1.26-7.018,11.752,11.752,0,0,0-3.39-4.976Q36.9-30.811,28.551-30.811Zm43.283,1.543a29.8,29.8,0,0,1,3.129-13.546,31.768,31.768,0,0,1,9.126-10.894,35.267,35.267,0,0,1,9.647-5.283,30.8,30.8,0,0,1,10.43-1.848,30.164,30.164,0,0,1,12.95,2.935,33.22,33.22,0,0,1,10.951,8.285,29.132,29.132,0,0,1,7.648,19.787,29.556,29.556,0,0,1-2,10.741,30.5,30.5,0,0,1-5.823,9.437,32.784,32.784,0,0,1-11.1,8.219A32.04,32.04,0,0,1,95.605,1.478,31.923,31.923,0,0,1,82.395-1.349a31.524,31.524,0,0,1-10.864-8,29,29,0,0,1-5.541-9.2A30.264,30.264,0,0,1,64.056-29.268Zm10.517.653Q74.572-16,81.438-7.35a20.4,20.4,0,0,0,6.54,5.632A17.321,17.321,0,0,0,95.953.043a17.6,17.6,0,0,0,8.018-1.74,20.367,20.367,0,0,0,6.584-5.653q6.866-8.7,6.866-21.44a45.441,45.441,0,0,0-1.89-13.243,31.751,31.751,0,0,0-5.323-10.59,17.515,17.515,0,0,0-6.193-5.2,18.518,18.518,0,0,0-8.061-1.631,18.334,18.334,0,0,0-7.974,1.609,18,18,0,0,0-6.236,5.219,30.938,30.938,0,0,0-5.3,10.568A46.782,46.782,0,0,0,74.572-28.616Zm61.666-.653a29.8,29.8,0,0,1,3.129-13.546,31.768,31.768,0,0,1,9.126-10.894,35.267,35.267,0,0,1,9.647-5.283,30.8,30.8,0,0,1,10.43-1.848A30.164,30.164,0,0,1,181.52-57.9a33.22,33.22,0,0,1,10.951,8.285,29.132,29.132,0,0,1,7.648,19.787,29.556,29.556,0,0,1-2,10.741A30.5,30.5,0,0,1,192.3-9.655a32.784,32.784,0,0,1-11.1,8.219,32.04,32.04,0,0,1-13.406,2.914,31.923,31.923,0,0,1-13.211-2.827,31.524,31.524,0,0,1-10.864-8,29,29,0,0,1-5.541-9.2A30.264,30.264,0,0,1,136.238-29.268Zm10.517.653q0,12.612,6.866,21.266a20.4,20.4,0,0,0,6.54,5.632A17.321,17.321,0,0,0,168.135.043a17.6,17.6,0,0,0,8.018-1.74,20.367,20.367,0,0,0,6.584-5.653q6.866-8.7,6.866-21.44a45.441,45.441,0,0,0-1.89-13.243,31.751,31.751,0,0,0-5.323-10.59,17.516,17.516,0,0,0-6.193-5.2,18.518,18.518,0,0,0-8.061-1.631,18.334,18.334,0,0,0-7.974,1.609,18,18,0,0,0-6.236,5.219,30.938,30.938,0,0,0-5.3,10.568A46.782,46.782,0,0,0,146.754-28.616Zm78.266-1.63L243.4-48.5a33.986,33.986,0,0,0,3.411-3.672,3.711,3.711,0,0,0,.674-2.151,3.456,3.456,0,0,0-2.086-3.216,11.992,11.992,0,0,0-3.65-.782v-1h18.73v1a13.231,13.231,0,0,0-3.194.63,11.7,11.7,0,0,0-2.8,1.543,66.563,66.563,0,0,0-5.823,5.171L234.581-37.46l20.034,25.553,2.477,3.172a24.7,24.7,0,0,0,5.693,5.3,16.071,16.071,0,0,0,3.129,1.673A15.577,15.577,0,0,0,269.3-1V0H240.578V-1a11.836,11.836,0,0,0,4.693-1.086,2.647,2.647,0,0,0,1.434-2.434,8.74,8.74,0,0,0-1.782-4.433q-.869-1.3-3.259-4.52t-4.042-5.215l-9.778-12.125-2.825,2.781v14.384a31.641,31.641,0,0,0,.5,6.584,7.362,7.362,0,0,0,1.847,3.542,7.379,7.379,0,0,0,2.716,1.8A13.667,13.667,0,0,0,234.146-1V0H206.377V-1a13.667,13.667,0,0,0,4.063-.717,7.379,7.379,0,0,0,2.716-1.8,7.029,7.029,0,0,0,1.869-3.52,33,33,0,0,0,.478-6.605V-45.673a33,33,0,0,0-.478-6.605,7.029,7.029,0,0,0-1.869-3.52,6.9,6.9,0,0,0-2.738-1.825,14.351,14.351,0,0,0-4.042-.7v-1h27.769v1a14.087,14.087,0,0,0-4.02.7,7.3,7.3,0,0,0-2.76,1.825,7.362,7.362,0,0,0-1.847,3.542,31.641,31.641,0,0,0-.5,6.584ZM271.52-.174l.13-17.948,1,.043A38.935,38.935,0,0,0,277-7.283Q281.732,0,288.9,0a11.037,11.037,0,0,0,8.257-3.346,11.648,11.648,0,0,0,3.259-8.474,15.154,15.154,0,0,0-.717-4.52,13.247,13.247,0,0,0-1.934-3.955,14.739,14.739,0,0,0-3.542-3.259,66.6,66.6,0,0,0-6.975-3.955,69.253,69.253,0,0,1-6.323-3.52,18.371,18.371,0,0,1-3.542-2.912,14.209,14.209,0,0,1-3.737-9.952,17.253,17.253,0,0,1,1.456-6.953,16.742,16.742,0,0,1,4.063-5.736,15.53,15.53,0,0,1,10.908-4.259,16.347,16.347,0,0,1,3.781.413,32.163,32.163,0,0,1,4.65,1.63q2.173.869,2.955,1.108a4.828,4.828,0,0,0,1.391.239q1.521,0,2.042-2.216h1l.3,17.252h-1q-1.171-4.128-2.017-6.323a23.633,23.633,0,0,0-2.017-4.063,15.635,15.635,0,0,0-4.685-5.019,10.746,10.746,0,0,0-5.9-1.63,9.563,9.563,0,0,0-7.678,3.306,10.118,10.118,0,0,0-1.844,3.175,10.514,10.514,0,0,0-.673,3.654q0,7.265,9.33,11.7l6.118,2.958q7.073,3.35,10.2,7.4a16.54,16.54,0,0,1,3.558,10.527A18.688,18.688,0,0,1,307.98-9.1,17.012,17.012,0,0,1,301.2-1.276a20.064,20.064,0,0,1-10.647,2.753A27.085,27.085,0,0,1,279.776-.739q-2.694-1.173-3.216-1.347a3.7,3.7,0,0,0-1.173-.174,2.868,2.868,0,0,0-2.868,2.086Zm54.8-51.279v37.808a31.6,31.6,0,0,0,.5,6.605,7.354,7.354,0,0,0,1.847,3.52,7.3,7.3,0,0,0,2.76,1.825,14.087,14.087,0,0,0,4.02.7V0H315.411V-1a14.087,14.087,0,0,0,4.02-.7,7.3,7.3,0,0,0,2.76-1.825,7.362,7.362,0,0,0,1.847-3.542,31.642,31.642,0,0,0,.5-6.584V-45.717a31.355,31.355,0,0,0-.5-6.54A7.362,7.362,0,0,0,322.19-55.8a6.934,6.934,0,0,0-2.716-1.825,14.231,14.231,0,0,0-4.063-.7v-1h16.731L367.429-14.3V-45.673a31.6,31.6,0,0,0-.5-6.605,7.354,7.354,0,0,0-1.847-3.52,7.3,7.3,0,0,0-2.76-1.825,14.087,14.087,0,0,0-4.02-.7v-1h20.034v1a8.983,8.983,0,0,0-6.779,2.521,7.362,7.362,0,0,0-1.847,3.542,31.355,31.355,0,0,0-.5,6.54V0h-1.956Zm74.963,20.468v17.339a32.349,32.349,0,0,0,.478,6.54,7.473,7.473,0,0,0,1.825,3.542,7.082,7.082,0,0,0,2.76,1.847A14.034,14.034,0,0,0,410.408-1V0H382.639V-1a11.572,11.572,0,0,0,3.955-.674,7.2,7.2,0,0,0,2.912-1.8,7.99,7.99,0,0,0,1.738-3.694,31.351,31.351,0,0,0,.521-6.475V-45.673a57.306,57.306,0,0,0-.3-5.78,7.115,7.115,0,0,0-3.737-5.693,12.062,12.062,0,0,0-5.084-1.173v-1h45.413l1.26,14.124-1,.217a30.6,30.6,0,0,0-2-4.954,14.525,14.525,0,0,0-5.736-5.867,14.906,14.906,0,0,0-4.911-1.695,47.57,47.57,0,0,0-7.648-.478h-6.736v25.64h1.738q7.692,0,11.168-3.433a9.692,9.692,0,0,0,2.3-3.5,19.159,19.159,0,0,0,1.043-5.28l1,.043-.261,26.335h-1.043a21.815,21.815,0,0,0-1.63-6.844,9.23,9.23,0,0,0-3.5-3.889,12.62,12.62,0,0,0-4.281-1.586A34.98,34.98,0,0,0,401.282-30.985ZM431.094,0V-1.043a8.982,8.982,0,0,0,6.779-2.477,7.362,7.362,0,0,0,1.847-3.542,31.642,31.642,0,0,0,.5-6.584V-45.673a30.877,30.877,0,0,0-.543-6.8,7.152,7.152,0,0,0-2.021-3.585,7.661,7.661,0,0,0-2.716-1.651,13.437,13.437,0,0,0-3.846-.608v-1h27.769v1a14.788,14.788,0,0,0-3.911.652,7.217,7.217,0,0,0-2.694,1.651,7.266,7.266,0,0,0-2,3.607,31.517,31.517,0,0,0-.521,6.736V-20.6q0,5.78.3,8.6a14.02,14.02,0,0,0,1.173,4.606,9.583,9.583,0,0,0,4.52,4.585,18.352,18.352,0,0,0,7.953,1.456A24.282,24.282,0,0,0,472.4-2.716a13.364,13.364,0,0,0,5.8-4.237,17.836,17.836,0,0,0,2.5-4.433,40.165,40.165,0,0,0,1.8-6.519l1.043.087L482.981,0Zm82.047-59.319v1a14.087,14.087,0,0,0-4.02.7,7.3,7.3,0,0,0-2.76,1.825,8.157,8.157,0,0,0-2.086,4.824,47.665,47.665,0,0,0-.261,5.3v32.028a36.407,36.407,0,0,0,.348,5.693,9.237,9.237,0,0,0,1.13,3.346A7.035,7.035,0,0,0,508.4-2.021,12.938,12.938,0,0,0,513.141-1V0H485.372V-1a13.667,13.667,0,0,0,4.063-.717,7.379,7.379,0,0,0,2.716-1.8,7.029,7.029,0,0,0,1.869-3.52,33,33,0,0,0,.478-6.605V-45.673a33,33,0,0,0-.478-6.605,7.029,7.029,0,0,0-1.869-3.52,6.9,6.9,0,0,0-2.738-1.825,14.351,14.351,0,0,0-4.042-.7v-1Zm3.3,0h28.638v1a15.692,15.692,0,0,0-4.606.521q-2.607.826-2.607,3.129,0,2.39,3.563,7.562l7.6,11.125,6.649-8.213a75.146,75.146,0,0,0,5.084-6.758,7.008,7.008,0,0,0,1.173-3.585,3.2,3.2,0,0,0-2.434-3.172,14.951,14.951,0,0,0-3.955-.608v-1H575.5v1a12.2,12.2,0,0,0-5.128.869q-2.825,1.3-7.518,7.214l-3.3,4.172-9.43,11.69,14.949,22.207a40.324,40.324,0,0,0,7.17,8.561,11.079,11.079,0,0,0,3.238,1.912,15.209,15.209,0,0,0,4.237.7V0h-30.2V-1a15.735,15.735,0,0,0,5.128-1.217q2.607-1.3,2.607-3.65a4.544,4.544,0,0,0-.52-1.912,31.263,31.263,0,0,0-1.949-3.259L544.169-27.117l-10.343,12.6a31.061,31.061,0,0,0-3.411,4.845,7.752,7.752,0,0,0-1.021,3.585,4.225,4.225,0,0,0,1.76,3.629A9.716,9.716,0,0,0,536.39-1V0H515.27V-1a14.639,14.639,0,0,0,3.976-1.239,17.094,17.094,0,0,0,3.716-2.8,104.545,104.545,0,0,0,8.822-9.778l11.3-13.819L529.611-48.846l-2.3-3.346a17.308,17.308,0,0,0-4.259-4.78,12.791,12.791,0,0,0-5.3-1.26q-.435,0-1.3-.087Z" transform="translate(646 504)" fill="url(#linear-gradient)"/>
  </g>
</svg>
